<?xml version="1.0" encoding="UTF-8" standalone="no"?>
<svg
   xmlns:dc="http://purl.org/dc/elements/1.1/"
   xmlns:cc="http://creativecommons.org/ns#"
   xmlns:rdf="http://www.w3.org/1999/02/22-rdf-syntax-ns#"
   xmlns:svg="http://www.w3.org/2000/svg"
   xmlns="http://www.w3.org/2000/svg"
   xmlns:sodipodi="http://sodipodi.sourceforge.net/DTD/sodipodi-0.dtd"
   xmlns:inkscape="http://www.inkscape.org/namespaces/inkscape"
   sodipodi:docname="clowder.svg"
   inkscape:version="1.0 (4035a4fb49, 2020-05-01)"
   id="svg6757"
   version="1.1"
   viewBox="0 0 210 297"
   height="297mm"
   width="210mm">
  <defs
     id="defs6751" />
  <sodipodi:namedview
     inkscape:window-maximized="1"
     inkscape:window-y="27"
     inkscape:window-x="0"
     inkscape:window-height="1016"
     inkscape:window-width="1920"
     inkscape:snap-global="false"
     showgrid="false"
     inkscape:document-rotation="0"
     inkscape:current-layer="layer1"
     inkscape:document-units="mm"
     inkscape:cy="526.11957"
     inkscape:cx="502.62965"
     inkscape:zoom="0.29328372"
     inkscape:pageshadow="2"
     inkscape:pageopacity="0.0"
     borderopacity="1.0"
     bordercolor="#666666"
     pagecolor="#ffffff"
     id="base" />
  <metadata
     id="metadata6754">
    <rdf:RDF>
      <cc:Work
         rdf:about="">
        <dc:format>image/svg+xml</dc:format>
        <dc:type
           rdf:resource="http://purl.org/dc/dcmitype/StillImage" />
        <dc:title></dc:title>
      </cc:Work>
    </rdf:RDF>
  </metadata>
  <g
     id="layer1"
     inkscape:groupmode="layer"
     inkscape:label="Layer 1">
    <path
       inkscape:export-ydpi="121.024"
       inkscape:export-xdpi="121.024"
       id="path7414-3-2-2"
       style="fill:#f7e8f4;fill-opacity:1;stroke-width:1.97437;stroke-linecap:round;stroke-linejoin:bevel;stroke-miterlimit:4;stroke-dasharray:none"
       d="m 99.683469,57.067818 c -0.253949,0.01216 -0.574066,0.01853 -0.719802,0.265964 -0.185794,0.368312 -0.269843,0.777586 -0.380767,1.172545 -0.447375,1.777149 -0.809821,3.574861 -1.131727,5.378619 -0.198962,1.110755 -0.35922,2.229061 -0.442436,3.354857 -0.09616,1.164828 -0.152383,2.333471 -0.137455,3.502494 v 1.200404 c -1.935254,1.751205 -2.629578,3.743772 -5.946449,11.849743 -0.430901,1.04652 -0.710103,2.163677 -1.30659,3.135673 -0.169285,0.285113 -0.39123,0.534877 -0.648966,0.74275 -0.570238,0.547632 -1.059027,1.174123 -1.52191,1.81324 -0.686222,0.987376 -1.277683,2.036895 -1.850342,3.093043 -0.322983,0.615295 -0.657565,1.228498 -0.90431,1.879365 -0.06821,0.172395 -0.104728,0.414453 0.07242,0.535181 0.145712,0.140344 0.365318,0.05901 0.529317,-0.0041 0.915474,-0.343283 1.754399,-0.861286 2.674639,-1.193029 -0.09659,0.718115 -0.328172,1.40945 -0.552236,2.095834 -0.33486,0.987786 -0.729547,1.955793 -1.186905,2.892982 -0.06578,0.203016 0.08734,0.408667 0.28223,0.461464 0.448707,0.133263 0.924346,0.122387 1.388149,0.127727 h 0.953593 c 0.753781,1.400646 1.466176,2.825576 2.307087,4.177266 2.790397,4.54019 6.564997,8.48478 11.032661,11.39803 1.10687,0.68239 0.87523,1.57875 0.55539,2.09251 -0.80489,1.02403 -1.54862,2.09435 -2.29571,3.16082 -1.070937,1.54758 -2.13575,3.10252 -3.076205,4.73411 -1.46196,2.51991 -2.762678,5.13553 -3.856617,7.83621 -0.594419,1.49588 -1.144895,3.01805 -1.47778,4.59606 -0.04001,0.23252 -0.130825,0.51607 0.04435,0.71542 0.143802,0.16578 0.399482,0.13911 0.562323,0.0163 0.428788,-0.31154 0.791749,-0.70249 1.175157,-1.06625 0.533051,-0.52173 1.066184,-1.04813 1.66486,-1.49549 -0.131092,1.03894 -0.408533,2.03911 -0.604768,3.06554 -0.694097,3.49652 -1.109405,7.04669 -1.285604,10.60634 -0.06091,1.39988 -0.105029,2.80066 -0.122047,4.2018 0.0029,0.7318 -0.01529,1.47307 0.136836,2.1929 0.07789,0.35346 0.267956,0.71994 0.621803,0.8609 0.40562,0.16904 0.85336,0.0742 1.277121,0.13106 -0.03272,0.25437 -0.10537,0.50363 -0.102139,0.7625 -0.02878,1.09277 0.03943,2.18541 0.109522,3.27548 0.245275,3.44443 0.776867,6.87093 1.626713,10.21869 0.555646,2.15634 1.234636,4.29038 2.183586,6.30852 0.537933,1.12175 1.153109,2.22585 1.997459,3.14853 0.56807,0.58347 1.1856,1.11896 1.83306,1.61255 0.82897,0.61881 1.72973,1.18592 2.74327,1.43984 0.62905,0.1538 1.34333,0.13727 1.89339,-0.24058 0.24591,-0.17664 0.47089,-0.3942 0.63034,-0.65293 0.19577,-0.35174 0.0711,-0.76418 -0.0319,-1.12371 1.0396,-0.50667 1.58359,1.68781 2.32279,2.57724 0.73846,0.87974 1.69212,1.53935 2.63642,2.17769 1.89797,1.26052 4.01078,2.20991 6.2356,2.71551 2.28455,0.52913 4.65443,0.60695 6.98521,0.41316 1.96813,-0.16803 3.91042,-0.62438 5.7468,-1.35213 0.73943,-0.28605 1.45694,-0.62413 2.1739,-0.96154 0.31548,-0.13899 0.64946,-0.30893 0.99434,-0.39888 0.12078,-0.0428 0.2469,4.6e-4 0.32841,0.096 0.12072,0.12242 0.26283,0.23307 0.35205,0.38066 -0.0904,0.24184 -0.29102,0.42232 -0.45238,0.61826 -0.73035,0.80141 -1.51712,1.55066 -2.22761,2.37019 -0.16624,0.20977 -0.39347,0.44989 -0.33149,0.74118 0.0563,0.23152 0.30811,0.3293 0.52515,0.32617 0.51106,0.0156 1.00933,-0.12824 1.50173,-0.24686 1.41998,-0.37444 2.81305,-0.84765 4.18093,-1.38072 1.75761,-0.67125 3.40315,-1.5998 4.9871,-2.60776 2.02451,-1.30171 3.96206,-2.74366 5.75819,-4.34706 0.81312,-0.71762 1.56052,-1.50415 2.3172,-2.27976 0.069,0.84423 0.13771,1.68847 0.20648,2.53271 0.16388,0.0728 0.32776,0.14563 0.49164,0.21844 0.45738,-0.34877 0.91776,-0.7047 1.37168,-1.04731 0.20061,-0.14986 0.43211,-0.31342 0.65062,-0.4602 1.59058,-1.06331 3.31568,-1.91894 5.10303,-2.5975 0.58361,-0.2171 1.18095,-0.41022 1.76501,-0.64667 0.47149,-0.19455 0.95387,-0.37581 1.38831,-0.64649 0.28414,-0.21435 0.42964,-0.55475 0.58724,-0.86326 0.23317,-0.47625 0.38919,-0.98324 0.56261,-1.48171 0.22788,-0.60208 0.54811,-1.21017 1.0988,-1.5754 0.21079,-0.15586 0.42158,-0.31171 0.63237,-0.46758 l 0.0505,-0.44556 c -0.61438,-0.72657 -1.26517,-1.42768 -1.78399,-2.22877 -1.11771,-1.68759 -1.87164,-3.58531 -2.48428,-5.50601 -0.47019,-1.48633 -0.85426,-3.01359 -1.18993,-4.54556 -0.2794,-1.27657 -0.52086,-2.57821 -0.80574,-3.8614 -0.24588,-1.1062 -0.48395,-2.21554 -0.79526,-3.30558 -0.26647,-0.83825 -0.66375,-1.62806 -1.0761,-2.40261 -0.99774,-1.82588 -2.17511,-3.55038 -3.46111,-5.18461 -0.58119,-0.74 -1.2003,-1.44932 -1.83765,-2.141 -0.26225,-0.31589 -0.55079,-0.63904 -0.66131,-1.04372 -0.0546,-0.16896 0.0569,-0.33337 0.20593,-0.40661 0.20054,-0.12292 0.48746,-0.15418 0.58648,-0.39916 0.11583,-0.25144 -0.0566,-0.5129 -0.23269,-0.685 -0.50529,-0.49404 -1.09341,-0.89193 -1.64875,-1.32613 -2.08685,-1.61972 -4.03009,-3.41519 -5.92124,-5.25699 -2.87474,-2.82194 -5.61207,-5.78491 -8.18448,-8.88515 -0.95376,-1.14429 -1.92162,-2.36078 -2.38847,-3.80519 -0.29758,-0.89027 -0.36428,-1.83721 -0.34772,-2.77004 v -0.9882 c -0.13466,-0.0968 -0.26931,-0.19369 -0.40397,-0.29054 0.77322,-0.74596 -0.23965,-1.14939 1.80928,-2.06042 1.78637,-1.05807 3.50007,-2.23998 5.12079,-3.53766 0.52347,-0.42663 1.05097,-0.90427 1.29475,-1.55225 0.25183,-0.67669 0.37966,-1.39277 0.47937,-2.10566 0.0525,-0.32518 0.0415,-0.6553 0.0759,-0.98177 0.021,-0.0504 0.005,-0.25019 0.0683,-0.17732 0.46759,0.5361 0.86002,1.13634 1.19452,1.76328 0.10143,0.2004 0.20628,0.40903 0.2089,0.63833 0.0281,0.23573 0.27612,0.42731 0.51019,0.34591 0.20533,-0.0577 0.31457,-0.26451 0.33399,-0.46447 0.12329,-0.77589 0.16079,-1.56243 0.21388,-2.34546 0.1082,-1.67004 0.10699,-3.34695 0.27504,-5.01297 0.0859,-0.92174 0.311,-1.82421 0.6062,-2.699818 0.35428,-1.079114 0.76243,-2.155057 0.89646,-3.289859 0.0759,-0.639105 4.5e-4,-1.325281 -0.37068,-1.867897 -0.23237,-0.365144 -0.57622,-0.633703 -0.89694,-0.915799 -0.14061,-0.145023 -0.32292,-0.299665 -0.33541,-0.5148 0.0217,-0.175522 0.18467,-0.326545 0.36727,-0.293227 0.40016,0.05628 0.72818,0.325543 1.01924,0.587675 0.36684,0.359638 0.70788,0.74477 1.06402,1.11497 l 0.44915,-0.0035 c 0.87218,-0.966085 1.78289,-1.900587 2.57473,-2.935796 1.63496,-2.118825 2.97683,-4.460241 4.01707,-6.924836 0.59589,-1.437262 1.10656,-2.918104 1.39439,-4.450171 0.31127,-1.613885 0.52747,-3.246098 0.66095,-4.884126 0.0457,-0.701258 0.10382,-1.408056 0.0298,-2.109249 -0.0471,-0.471332 -0.33092,-0.895539 -0.72146,-1.155467 -0.59636,-0.404832 -1.29234,-0.623807 -1.97019,-0.849846 -1.05058,-0.327158 -2.11085,-0.624415 -3.17907,-0.888323 -0.92404,-0.228793 -1.87305,-0.341444 -2.82353,-0.374288 -1.39446,-0.05211 -2.79044,-0.03706 -4.18555,-0.0273 -1.41079,0.02312 -2.82488,0.05324 -4.22761,0.216886 -0.48142,0.05132 -0.95137,0.168336 -1.4169,0.297474 -0.27165,0.07144 -0.54329,0.142877 -0.81494,0.214315 -0.0478,0.169466 -0.0956,0.338931 -0.14333,0.508397 -5.96527,-2.184852 12.45996,6.5915 -7.27353,-3.822691 -2.6737,-1.38841 -5.59155,-2.330647 -8.59165,-2.653269 -24.77579,-2.69747 -2.22783,7.047672 -7.1787,-1.255024 -0.24789,-0.429455 -0.61867,-0.770215 -0.97174,-1.112088 -0.89831,-0.826794 -1.87013,-1.578269 -2.9165,-2.208822 -0.84716,-0.493656 -1.76319,-0.853516 -2.67465,-1.208457 -0.89986,-0.346661 -1.82183,-0.63694 -2.76409,-0.844153 -1.41432,-0.317141 -2.84617,-0.562566 -4.28843,-0.709692 -0.3804,-0.0348 -0.76227,-0.06479 -1.14457,-0.05709 z"
       sodipodi:nodetypes="cccccccccccccccccccccccccccccccccccccccccccccccccccccccccccccccccccccccccccccccccccccccccccccccccccccccccccccccccccccccccccccccccccccccccccccc" />
    <path
       inkscape:export-ydpi="121.024"
       inkscape:export-xdpi="121.024"
       id="path7414-3-2-7"
       style="fill:#dfedff;fill-opacity:1;stroke-width:1.97437;stroke-linecap:round;stroke-linejoin:bevel;stroke-miterlimit:4;stroke-dasharray:none"
       d="m 129.35517,95.645749 c -0.25395,0.01216 -0.57407,0.01853 -0.7198,0.265964 -0.1858,0.368312 -0.26985,0.777586 -0.38077,1.172545 -0.44738,1.77715 -0.80982,3.574862 -1.13173,5.378622 -0.19896,1.11075 -0.35922,2.22906 -0.44243,3.35485 -0.0962,1.16483 -0.15239,2.33348 -0.13746,3.5025 v 1.2004 c -1.93525,1.75121 -2.62958,3.74378 -5.94645,11.84975 -0.4309,1.04652 -0.7101,2.16367 -1.30659,3.13567 -0.16928,0.28511 -0.39123,0.53488 -0.64896,0.74275 -0.57024,0.54763 -1.05903,1.17412 -1.52191,1.81324 -0.68623,0.98737 -1.27769,2.03689 -1.85035,3.09304 -0.32298,0.61529 -0.65756,1.22849 -0.90431,1.87936 -0.0682,0.1724 -0.10472,0.41446 0.0724,0.53518 0.14571,0.14035 0.36532,0.059 0.52932,-0.004 0.91547,-0.34329 1.7544,-0.86129 2.67464,-1.19303 -0.0966,0.71811 -0.32818,1.40945 -0.55224,2.09583 -0.33486,0.98779 -0.72955,1.9558 -1.1869,2.89299 -0.0658,0.20301 0.0873,0.40866 0.28222,0.46146 0.44871,0.13326 0.92435,0.12239 1.38815,0.12773 h 0.9536 c 0.75378,1.40065 1.46617,2.82558 2.30708,4.17726 2.7904,4.5402 6.565,8.48478 11.03267,11.39803 1.10687,0.6824 0.87523,1.57876 0.55538,2.09252 -0.80488,1.02403 -1.54861,2.09435 -2.2957,3.16081 -1.07094,1.54759 -2.13575,3.10253 -3.07621,4.73412 -1.46196,2.51991 -2.76268,5.13553 -3.85662,7.83621 -0.59442,1.49588 -1.14489,3.01805 -1.47778,4.59606 -0.04,0.23252 -0.13082,0.51607 0.0444,0.71542 0.1438,0.16578 0.39948,0.13911 0.56232,0.0163 0.42879,-0.31153 0.79175,-0.70248 1.17516,-1.06624 0.53305,-0.52174 1.06618,-1.04813 1.66486,-1.49549 -0.13109,1.03894 -0.40853,2.03911 -0.60477,3.06554 -0.6941,3.49651 -1.1094,7.04669 -1.2856,10.60634 -0.0609,1.39988 -0.10503,2.80066 -0.12205,4.2018 0.003,0.7318 -0.0153,1.47307 0.13684,2.19289 0.0779,0.35347 0.26795,0.71995 0.6218,0.86091 0.40562,0.16904 0.85336,0.0742 1.27712,0.13106 -0.0327,0.25437 -0.10537,0.50363 -0.10214,0.7625 -0.0288,1.09277 0.0394,2.18541 0.10952,3.27548 0.24528,3.44443 0.77687,6.87093 1.62671,10.21869 0.55565,2.15634 1.23464,4.29038 2.18359,6.30852 0.53793,1.12175 1.15311,2.22585 1.99746,3.14853 0.56807,0.58347 1.1856,1.11896 1.83306,1.61255 0.82897,0.61881 1.72973,1.18592 2.74327,1.43984 0.62905,0.1538 1.34333,0.13727 1.89339,-0.24058 0.24591,-0.17664 0.47089,-0.3942 0.63034,-0.65293 0.19577,-0.35174 0.0711,-0.76418 -0.0319,-1.12371 1.0396,-0.50667 1.58359,1.68781 2.32279,2.57724 0.73846,0.87974 1.69211,1.53935 2.63641,2.17769 1.89798,1.26052 4.01079,2.20991 6.23561,2.71551 2.28455,0.52913 4.65443,0.60695 6.98521,0.41316 1.96813,-0.16803 3.91043,-0.62438 5.7468,-1.35213 0.73943,-0.28605 1.45694,-0.62413 2.17389,-0.96154 0.31549,-0.13899 0.64947,-0.30893 0.99435,-0.39888 0.12078,-0.0428 0.2469,4.6e-4 0.32841,0.096 0.12072,0.12242 0.26283,0.23307 0.35205,0.38066 -0.0904,0.24184 -0.29102,0.42232 -0.45238,0.61826 -0.73035,0.80141 -1.51712,1.55066 -2.22761,2.37019 -0.16624,0.20977 -0.39347,0.44989 -0.33149,0.74118 0.0563,0.23152 0.30811,0.3293 0.52515,0.32617 0.51105,0.0156 1.00933,-0.12824 1.50173,-0.24686 1.41997,-0.37444 2.81305,-0.84765 4.18093,-1.38072 1.75761,-0.67125 3.40315,-1.5998 4.9871,-2.60776 2.02451,-1.30171 3.96206,-2.74366 5.75818,-4.34706 0.81313,-0.71762 1.56053,-1.50415 2.31721,-2.27976 0.069,0.84423 0.13771,1.68847 0.20648,2.53271 0.16388,0.0728 0.32776,0.14563 0.49164,0.21844 0.45737,-0.34877 0.91776,-0.7047 1.37168,-1.04731 0.20061,-0.14986 0.43211,-0.31342 0.65062,-0.4602 1.59058,-1.06331 3.31568,-1.91894 5.10303,-2.5975 0.58361,-0.2171 1.18094,-0.41022 1.76501,-0.64667 0.47149,-0.19455 0.95387,-0.37581 1.38831,-0.64649 0.28414,-0.21435 0.42963,-0.55475 0.58724,-0.86326 0.23317,-0.47625 0.38919,-0.98324 0.56261,-1.48171 0.22788,-0.60208 0.54811,-1.21017 1.09879,-1.5754 0.2108,-0.15586 0.42159,-0.31172 0.63238,-0.46759 l 0.0506,-0.44555 c -0.61438,-0.72657 -1.26517,-1.42768 -1.78399,-2.22877 -1.11771,-1.6876 -1.87164,-3.58532 -2.48428,-5.50601 -0.47019,-1.48634 -0.85426,-3.01359 -1.18993,-4.54556 -0.2794,-1.27657 -0.52086,-2.57821 -0.80574,-3.8614 -0.24588,-1.1062 -0.48395,-2.21554 -0.79526,-3.30558 -0.26647,-0.83825 -0.66375,-1.62806 -1.0761,-2.40261 -0.99774,-1.82588 -2.17511,-3.55039 -3.46112,-5.18461 -0.58118,-0.74 -1.20029,-1.44932 -1.83765,-2.141 -0.26224,-0.31589 -0.55078,-0.63904 -0.6613,-1.04372 -0.0546,-0.16896 0.0569,-0.33337 0.20593,-0.40661 0.20054,-0.12292 0.48746,-0.15418 0.58648,-0.39916 0.11583,-0.25144 -0.0566,-0.5129 -0.23269,-0.685 -0.50529,-0.49404 -1.09341,-0.89193 -1.64875,-1.32613 -2.08685,-1.61972 -4.03009,-3.41519 -5.92124,-5.25699 -2.87474,-2.82194 -5.61206,-5.78491 -8.18449,-8.88515 -0.95375,-1.14429 -1.92161,-2.36078 -2.38846,-3.8052 -0.29758,-0.89027 -0.36428,-1.8372 -0.34772,-2.77004 v -0.98819 c -0.13466,-0.0968 -0.26931,-0.1937 -0.40397,-0.29054 0.77322,-0.74597 -0.23965,-1.1494 1.80928,-2.06043 1.78637,-1.05807 3.50007,-2.23998 5.12078,-3.53766 0.52348,-0.42663 1.05098,-0.90426 1.29476,-1.55225 0.25183,-0.67669 0.37966,-1.39276 0.47937,-2.10566 0.0525,-0.32517 0.0415,-0.65529 0.0759,-0.98177 0.021,-0.0504 0.005,-0.25019 0.0683,-0.17731 0.46759,0.53609 0.86002,1.13634 1.19452,1.76327 0.10143,0.2004 0.20628,0.40904 0.20889,0.63833 0.0281,0.23573 0.27613,0.42731 0.5102,0.34592 0.20533,-0.0577 0.31457,-0.26451 0.33399,-0.46448 0.12329,-0.77588 0.16079,-1.56242 0.21388,-2.34546 0.1082,-1.67004 0.10699,-3.34694 0.27504,-5.01296 0.0859,-0.92175 0.311,-1.82422 0.6062,-2.69982 0.35428,-1.07912 0.76243,-2.15506 0.89646,-3.28986 0.0759,-0.63911 4.5e-4,-1.32528 -0.37068,-1.8679 -0.23237,-0.36515 -0.57622,-0.6337 -0.89694,-0.9158 -0.14061,-0.14502 -0.32292,-0.29967 -0.33541,-0.5148 0.0217,-0.17552 0.18467,-0.32654 0.36727,-0.29322 0.40016,0.0563 0.72818,0.32554 1.01924,0.58767 0.36684,0.35963 0.70788,0.74477 1.06402,1.11497 l 0.44915,-0.003 c 0.87218,-0.96608 1.78289,-1.90058 2.57473,-2.93579 1.63496,-2.11882 2.97683,-4.46024 4.01707,-6.92483 0.59588,-1.43727 1.10656,-2.91811 1.39439,-4.45018 0.31127,-1.61388 0.52747,-3.24609 0.66095,-4.88412 0.0457,-0.70126 0.10382,-1.40805 0.0298,-2.10925 -0.0471,-0.47133 -0.33092,-0.89554 -0.72146,-1.15547 -0.59636,-0.40482 -1.29234,-0.6238 -1.97019,-0.84984 -1.05058,-0.32716 -2.11085,-0.62442 -3.17907,-0.88833 -0.92404,-0.22879 -1.87305,-0.34144 -2.82353,-0.37428 -1.39446,-0.0521 -2.79044,-0.0371 -4.18556,-0.0273 -1.41078,0.0231 -2.82487,0.0532 -4.2276,0.21688 -0.48142,0.0513 -0.95137,0.16834 -1.4169,0.29748 -0.27165,0.0714 -0.54329,0.14288 -0.81494,0.21431 -0.0478,0.16947 -0.0956,0.33893 -0.14333,0.5084 -5.96527,-2.18485 12.45996,6.5915 -7.27353,-3.82269 -2.6737,-1.38841 -5.59155,-2.33065 -8.59165,-2.65327 -24.77579,-2.69747 -2.22783,7.04767 -7.1787,-1.25503 -0.24789,-0.42945 -0.61867,-0.77021 -0.97174,-1.11208 -0.89831,-0.826797 -1.87014,-1.578273 -2.91651,-2.208825 -0.84715,-0.493654 -1.76318,-0.853517 -2.67464,-1.208458 -0.89986,-0.346661 -1.82184,-0.636939 -2.76409,-0.844153 -1.41432,-0.317141 -2.84617,-0.562566 -4.28843,-0.709692 -0.3804,-0.0348 -0.76227,-0.06479 -1.14457,-0.05709 z"
       sodipodi:nodetypes="cccccccccccccccccccccccccccccccccccccccccccccccccccccccccccccccccccccccccccccccccccccccccccccccccccccccccccccccccccccccccccccccccccccccccccccc" />
    <path
       inkscape:export-ydpi="121.024"
       inkscape:export-xdpi="121.024"
       id="path7414-3-2-3"
       style="fill:#ece9fe;fill-opacity:1;stroke-width:1.97437;stroke-linecap:round;stroke-linejoin:bevel;stroke-miterlimit:4;stroke-dasharray:none"
       d="m 46.775402,59.197634 c -0.253949,0.01216 -0.574066,0.01853 -0.719802,0.26596 -0.185794,0.368312 -0.269844,0.777587 -0.380767,1.172545 -0.447375,1.777151 -0.809821,3.574864 -1.131727,5.378622 -0.198962,1.110754 -0.359221,2.229061 -0.442436,3.354856 -0.09616,1.164828 -0.152383,2.333472 -0.137455,3.502494 v 1.200404 c -1.935255,1.751206 -2.629578,3.743773 -5.946449,11.849744 -0.430902,1.046519 -0.710103,2.163676 -1.30659,3.135673 -0.169285,0.285112 -0.39123,0.534876 -0.648966,0.742749 -0.570239,0.547632 -1.059028,1.174123 -1.52191,1.813241 -0.686222,0.987375 -1.277683,2.036895 -1.850342,3.093043 -0.322983,0.615294 -0.657565,1.228498 -0.904311,1.879364 -0.06821,0.172395 -0.104727,0.414454 0.07242,0.535181 0.145712,0.140344 0.365317,0.05901 0.529316,-0.0041 0.915475,-0.343283 1.754399,-0.861286 2.67464,-1.193029 -0.09659,0.718115 -0.328172,1.40945 -0.552236,2.095834 -0.33486,0.987787 -0.729547,1.955794 -1.186905,2.892975 -0.06578,0.20302 0.08734,0.40867 0.28223,0.46147 0.448707,0.13326 0.924346,0.12239 1.388149,0.12773 h 0.953593 c 0.753781,1.40065 1.466176,2.82558 2.307087,4.17726 2.790397,4.5402 6.564997,8.48478 11.032664,11.39803 1.106869,0.6824 0.875231,1.57876 0.555386,2.09251 -0.804887,1.02403 -1.548616,2.09436 -2.295702,3.16082 -1.070945,1.54758 -2.135757,3.10252 -3.076212,4.73411 -1.46196,2.51992 -2.762678,5.13553 -3.856617,7.83622 -0.594419,1.49588 -1.144895,3.01805 -1.47778,4.59605 -0.04001,0.23252 -0.130825,0.51607 0.04435,0.71542 0.143802,0.16579 0.399482,0.13911 0.562323,0.0163 0.428788,-0.31153 0.791749,-0.70248 1.175156,-1.06624 0.533052,-0.52174 1.066185,-1.04814 1.664861,-1.49549 -0.131092,1.03894 -0.408533,2.0391 -0.604768,3.06554 -0.694097,3.49651 -1.109405,7.04668 -1.285604,10.60634 -0.06091,1.39988 -0.105029,2.80066 -0.122047,4.20179 0.0029,0.73181 -0.01529,1.47308 0.136836,2.1929 0.07789,0.35347 0.267956,0.71995 0.621803,0.86091 0.40562,0.16903 0.85336,0.0742 1.277121,0.13106 -0.03272,0.25436 -0.10537,0.50362 -0.102139,0.7625 -0.02878,1.09276 0.03943,2.18541 0.109522,3.27548 0.245275,3.44443 0.776867,6.87093 1.626712,10.21869 0.555647,2.15633 1.234637,4.29037 2.183587,6.30851 0.537933,1.12175 1.153106,2.22586 1.997461,3.14853 0.568067,0.58347 1.185597,1.11896 1.833058,1.61255 0.82897,0.61881 1.729731,1.18593 2.743268,1.43985 0.629047,0.15379 1.343331,0.13726 1.893389,-0.24059 0.245912,-0.17664 0.470897,-0.39419 0.630344,-0.65292 0.195772,-0.35174 0.0711,-0.76418 -0.03185,-1.12371 1.039601,-0.50668 1.583591,1.6878 2.322785,2.57723 0.738464,0.87975 1.692116,1.53936 2.636416,2.17769 1.897975,1.26052 4.010783,2.20992 6.235604,2.71552 2.284555,0.52912 4.654434,0.60695 6.985209,0.41315 1.968127,-0.16802 3.910429,-0.62438 5.746804,-1.35212 0.739437,-0.28606 1.456946,-0.62413 2.173893,-0.96154 0.315485,-0.13899 0.649464,-0.30893 0.994347,-0.39888 0.120779,-0.0428 0.246902,4.6e-4 0.328404,0.096 0.12072,0.12242 0.262831,0.23307 0.352057,0.38066 -0.09039,0.24184 -0.291025,0.42232 -0.452384,0.61826 -0.730346,0.80142 -1.517121,1.55066 -2.227606,2.3702 -0.16624,0.20977 -0.393471,0.44989 -0.331495,0.74118 0.05634,0.23152 0.308107,0.32929 0.525153,0.32617 0.511054,0.0156 1.009328,-0.12825 1.50173,-0.24686 1.419974,-0.37445 2.813044,-0.84765 4.180932,-1.38072 1.757607,-0.67126 3.403145,-1.59981 4.987094,-2.60777 2.024509,-1.3017 3.962062,-2.74366 5.758188,-4.34706 0.813121,-0.71761 1.560526,-1.50414 2.317208,-2.27975 0.069,0.84422 0.13771,1.68847 0.206472,2.5327 0.163883,0.0728 0.327766,0.14564 0.491646,0.21844 0.45738,-0.34877 0.91776,-0.7047 1.37168,-1.0473 0.20061,-0.14987 0.43211,-0.31343 0.65062,-0.4602 1.59058,-1.06332 3.31568,-1.91894 5.10304,-2.5975 0.58361,-0.2171 1.18094,-0.41022 1.765,-0.64668 0.47149,-0.19454 0.95388,-0.37581 1.38831,-0.64648 0.28414,-0.21436 0.42964,-0.55475 0.58724,-0.86327 0.23318,-0.47624 0.3892,-0.98324 0.56262,-1.48171 0.22788,-0.60208 0.5481,-1.21016 1.09879,-1.5754 0.21079,-0.15585 0.42158,-0.31171 0.63237,-0.46758 l 0.0506,-0.44555 c -0.61439,-0.72657 -1.26518,-1.42768 -1.78399,-2.22877 -1.11772,-1.6876 -1.87164,-3.58532 -2.48429,-5.50601 -0.47019,-1.48634 -0.85426,-3.01359 -1.18992,-4.54556 -0.27941,-1.27657 -0.52087,-2.57822 -0.80575,-3.86141 -0.24587,-1.10619 -0.48395,-2.21553 -0.79526,-3.30558 -0.26646,-0.83824 -0.66375,-1.62805 -1.07609,-2.4026 -0.99775,-1.82589 -2.17511,-3.55039 -3.46112,-5.18462 -0.58119,-0.74 -1.2003,-1.44931 -1.837656,-2.14099 -0.262247,-0.31589 -0.550788,-0.63904 -0.661306,-1.04373 -0.05455,-0.16895 0.05686,-0.33336 0.205928,-0.40661 0.200543,-0.12291 0.487464,-0.15418 0.586494,-0.39915 0.11582,-0.25145 -0.0566,-0.5129 -0.232699,-0.685 -0.505292,-0.49404 -1.093412,-0.89193 -1.648757,-1.32614 -2.086844,-1.61971 -4.030089,-3.41518 -5.921237,-5.25698 -2.874736,-2.82194 -5.612058,-5.78491 -8.184483,-8.88516 -0.953756,-1.14429 -1.921618,-2.36077 -2.388461,-3.80519 -0.297586,-0.89027 -0.364287,-1.83721 -0.347726,-2.77004 v -0.9881 c -0.134659,-0.0968 -0.269311,-0.1937 -0.403958,-0.29055 0.773213,-0.74596 -0.239658,-1.14939 1.80927,-2.06042 1.786374,-1.05807 3.500072,-2.23998 5.120785,-3.53766 0.52348,-0.42663 1.050984,-0.90426 1.294754,-1.55225 0.251841,-0.67669 0.379666,-1.39277 0.479367,-2.10566 0.05246,-0.32517 0.04152,-0.6553 0.07587,-0.98177 0.02096,-0.0504 0.0046,-0.25019 0.06825,-0.17731 0.46759,0.53609 0.860019,1.13634 1.19452,1.76327 0.101427,0.2004 0.206282,0.40904 0.208893,0.63833 0.02814,0.23573 0.276121,0.42731 0.510197,0.34592 0.205326,-0.0577 0.314564,-0.26451 0.333985,-0.46448 0.123292,-0.77589 0.160797,-1.56242 0.213879,-2.34546 0.108207,-1.67004 0.106991,-3.34695 0.275043,-5.01296 0.08586,-0.92175 0.311003,-1.82422 0.606198,-2.69983 0.354281,-1.07911 0.762431,-2.155053 0.896459,-3.289855 0.07591,-0.639106 4.57e-4,-1.325282 -0.370675,-1.867898 -0.232373,-0.365144 -0.576225,-0.633702 -0.896939,-0.915799 -0.140617,-0.145023 -0.322925,-0.299664 -0.33541,-0.514799 0.02172,-0.175522 0.184671,-0.326545 0.367264,-0.293227 0.400165,0.05628 0.72818,0.325543 1.019241,0.587675 0.366846,0.359637 0.707884,0.744769 1.064024,1.114969 l 0.449147,-0.0035 c 0.87218,-0.966085 1.782895,-1.900587 2.574736,-2.935796 1.634958,-2.118824 2.976823,-4.460241 4.017063,-6.924835 0.59589,-1.437263 1.10656,-2.918104 1.39439,-4.450171 0.31127,-1.613885 0.52747,-3.246099 0.66095,-4.884127 0.0457,-0.701257 0.10383,-1.408055 0.0298,-2.109249 -0.0471,-0.471332 -0.33092,-0.895538 -0.72146,-1.155466 -0.59635,-0.404832 -1.29233,-0.623808 -1.97019,-0.849847 -1.05058,-0.327158 -2.110845,-0.624415 -3.179068,-0.888323 -0.924039,-0.228793 -1.873053,-0.341444 -2.823531,-0.374287 -1.394461,-0.05212 -2.790438,-0.03706 -4.185553,-0.0273 -1.41079,0.02311 -2.824874,0.05324 -4.227604,0.216885 -0.481417,0.05132 -0.951376,0.168336 -1.416904,0.297475 -0.271645,0.07144 -0.54329,0.142876 -0.814934,0.214315 -0.04777,0.169465 -0.09556,0.33893 -0.143333,0.508397 -5.965274,-2.184853 12.459957,6.5915 -7.273531,-3.822692 -2.673701,-1.38841 -5.591548,-2.330646 -8.591649,-2.653269 -24.775789,-2.69747 -2.227832,7.047673 -7.1787,-1.255024 -0.247886,-0.429455 -0.61867,-0.770215 -0.971741,-1.112087 C 59.665066,63.39854 58.693238,62.647065 57.646869,62.016513 56.7997,61.522881 55.883675,61.163021 54.972213,60.80808 54.07235,60.461418 53.150378,60.171141 52.208122,59.963928 50.7938,59.646784 49.361956,59.401358 47.919695,59.254236 c -0.380402,-0.0348 -0.762275,-0.06479 -1.144571,-0.05709 z"
       sodipodi:nodetypes="cccccccccccccccccccccccccccccccccccccccccccccccccccccccccccccccccccccccccccccccccccccccccccccccccccccccccccccccccccccccccccccccccccccccccccccc" />
    <path
       inkscape:export-ydpi="121.024"
       inkscape:export-xdpi="121.024"
       sodipodi:nodetypes="cccccccccccccccccccccccccccccccccccccccccccccccccccccccccccccccccccccccccccccccccccccccccccccccccccccccccccccccccccccccccccccccccccccccccccccc"
       d="m 26.00068,94.573866 c -0.253949,0.01218 -0.574066,0.01852 -0.719801,0.265961 -0.185795,0.368313 -0.269844,0.777588 -0.380767,1.172546 -0.447376,1.777151 -0.809821,3.574864 -1.131728,5.378617 -0.198962,1.11076 -0.35922,2.22907 -0.442436,3.35486 -0.09616,1.16483 -0.152383,2.33347 -0.137455,3.50249 v 1.20041 c -1.935254,1.7512 -2.629578,3.74377 -5.946449,11.84974 -0.430901,1.04652 -0.710097,2.16368 -1.306584,3.13567 -0.169285,0.28512 -0.39123,0.53488 -0.648966,0.74275 -0.570238,0.54763 -1.059027,1.17413 -1.52191,1.81324 -0.686222,0.98738 -1.277683,2.0369 -1.850342,3.09305 -0.322983,0.61529 -0.657565,1.22849 -0.90431,1.87936 -0.06821,0.17239 -0.104728,0.41445 0.07242,0.53517 0.145712,0.14035 0.365318,0.059 0.529317,-0.004 0.915474,-0.34328 1.754399,-0.86128 2.674639,-1.19302 -0.09659,0.71811 -0.328172,1.40944 -0.552236,2.09583 -0.334859,0.98778 -0.729547,1.95579 -1.186905,2.89298 -0.06578,0.20301 0.08734,0.40866 0.28223,0.46146 0.448707,0.13327 0.924346,0.12239 1.388149,0.12773 h 0.953593 c 0.753781,1.40066 1.466176,2.82559 2.307081,4.17727 2.790398,4.5402 6.564998,8.48478 11.032665,11.39803 1.106868,0.6824 0.87523,1.57876 0.555391,2.09251 -0.804887,1.02403 -1.548621,2.09436 -2.295708,3.16082 -1.070944,1.54759 -2.135756,3.10252 -3.076212,4.73411 -1.46196,2.51992 -2.762678,5.13554 -3.856616,7.83622 -0.59442,1.49588 -1.144896,3.01805 -1.477781,4.59606 -0.04001,0.23251 -0.130825,0.51606 0.04436,0.71541 0.143801,0.16579 0.399482,0.13911 0.562322,0.0163 0.428788,-0.31153 0.791749,-0.70248 1.175157,-1.06624 0.533052,-0.52174 1.066184,-1.04813 1.66486,-1.49549 -0.131091,1.03894 -0.408532,2.0391 -0.604767,3.06554 -0.694098,3.49651 -1.109405,7.04668 -1.285605,10.60634 -0.06091,1.39988 -0.105028,2.80066 -0.122047,4.2018 0.0029,0.7318 -0.01529,1.47307 0.136836,2.19289 0.07789,0.35347 0.267956,0.71995 0.621803,0.86091 0.40562,0.16903 0.85336,0.0742 1.277122,0.13106 -0.03272,0.25437 -0.10537,0.50362 -0.102139,0.7625 -0.02878,1.09276 0.03943,2.18541 0.109521,3.27548 0.245275,3.44443 0.776868,6.87093 1.626713,10.21869 0.555646,2.15633 1.234636,4.29038 2.183586,6.30852 0.537933,1.12175 1.153112,2.22585 1.997462,3.14853 0.568067,0.58347 1.185602,1.11895 1.833057,1.61254 0.82897,0.61881 1.729737,1.18593 2.743275,1.43985 0.629047,0.1538 1.343324,0.13726 1.893383,-0.24058 0.245911,-0.17664 0.470896,-0.3942 0.630344,-0.65293 0.195771,-0.35174 0.0711,-0.76418 -0.03185,-1.12371 1.039606,-0.50667 1.58359,1.6878 2.322784,2.57723 0.738465,0.87975 1.692116,1.53936 2.636416,2.17769 1.897975,1.26052 4.010784,2.20992 6.235605,2.71552 2.284555,0.52913 4.654434,0.60695 6.985209,0.41315 1.968127,-0.16802 3.910428,-0.62438 5.746804,-1.35212 0.739431,-0.28605 1.45694,-0.62413 2.173893,-0.96154 0.315484,-0.13899 0.649464,-0.30893 0.994347,-0.39888 0.120779,-0.0428 0.246902,4.6e-4 0.328403,0.096 0.120721,0.12241 0.262832,0.23307 0.352058,0.38065 -0.09039,0.24184 -0.291025,0.42232 -0.452384,0.61826 -0.730346,0.80142 -1.517121,1.55066 -2.227606,2.3702 -0.16624,0.20977 -0.393471,0.44989 -0.331495,0.74118 0.05634,0.23152 0.308107,0.3293 0.525153,0.32617 0.511054,0.0156 1.009328,-0.12824 1.501724,-0.24686 1.419979,-0.37445 2.81305,-0.84765 4.180938,-1.38072 1.757607,-0.67126 3.40315,-1.59981 4.987099,-2.60777 2.024504,-1.3017 3.962057,-2.74365 5.758182,-4.34705 0.813127,-0.71762 1.560533,-1.50415 2.317214,-2.27976 0.06901,0.84422 0.13771,1.68847 0.206472,2.5327 0.163884,0.0728 0.327761,0.14564 0.491644,0.21845 0.457376,-0.34877 0.917751,-0.7047 1.371675,-1.04731 0.200607,-0.14987 0.432112,-0.31343 0.650617,-0.4602 1.590585,-1.06332 3.315684,-1.91894 5.103043,-2.5975 0.583608,-0.2171 1.180941,-0.41022 1.765007,-0.64667 0.471487,-0.19455 0.953866,-0.37582 1.388305,-0.64649 0.284135,-0.21436 0.429633,-0.55475 0.587239,-0.86326 0.233173,-0.47625 0.389193,-0.98325 0.562613,-1.48172 0.22788,-0.60208 0.548107,-1.21016 1.098791,-1.57539 0.210792,-0.15586 0.421584,-0.31172 0.632376,-0.46759 l 0.05055,-0.44555 c -0.614385,-0.72657 -1.265175,-1.42768 -1.783988,-2.22877 -1.117715,-1.6876 -1.87164,-3.58532 -2.484276,-5.50601 -0.470196,-1.48634 -0.854264,-3.01359 -1.189928,-4.54556 -0.279404,-1.27657 -0.520863,-2.57822 -0.805751,-3.86141 -0.245871,-1.10619 -0.483948,-2.21553 -0.795263,-3.30558 -0.266462,-0.83824 -0.66375,-1.62805 -1.076092,-2.4026 -0.997747,-1.82589 -2.175109,-3.55039 -3.461119,-5.18462 -0.581183,-0.74 -1.200293,-1.44931 -1.837644,-2.14099 -0.262246,-0.31589 -0.550788,-0.63904 -0.661306,-1.04373 -0.05455,-0.16895 0.05686,-0.33336 0.205928,-0.40661 0.200543,-0.12291 0.487463,-0.15417 0.586487,-0.39915 0.115828,-0.25145 -0.05657,-0.5129 -0.232692,-0.685 -0.505292,-0.49404 -1.093411,-0.89193 -1.648757,-1.32614 -2.086844,-1.61971 -4.030095,-3.41518 -5.921242,-5.25698 -2.874737,-2.82194 -5.612059,-5.78491 -8.184484,-8.88515 -0.953755,-1.1443 -1.921617,-2.36078 -2.38846,-3.8052 -0.297586,-0.89027 -0.364287,-1.8372 -0.347726,-2.77004 v -0.98819 c -0.134659,-0.0968 -0.269311,-0.1937 -0.403964,-0.29055 0.773219,-0.74596 -0.239652,-1.14939 1.809276,-2.06042 1.786373,-1.05807 3.500071,-2.23998 5.120784,-3.53766 0.52348,-0.42663 1.050985,-0.90427 1.29476,-1.55225 0.251835,-0.67669 0.379661,-1.39277 0.479368,-2.10566 0.05246,-0.32517 0.04152,-0.6553 0.07587,-0.98177 0.02096,-0.0504 0.0046,-0.25019 0.06825,-0.17731 0.467589,0.53609 0.860019,1.13633 1.194519,1.76327 0.101427,0.2004 0.206282,0.40903 0.208893,0.63833 0.02814,0.23573 0.276115,0.42731 0.510191,0.34592 0.205326,-0.0577 0.314564,-0.26451 0.333985,-0.46448 0.123292,-0.77589 0.160797,-1.56242 0.213879,-2.34546 0.108207,-1.67004 0.106991,-3.34695 0.275044,-5.01296 0.08586,-0.92175 0.311002,-1.82422 0.606197,-2.69983 0.354281,-1.07912 0.762432,-2.15506 0.896459,-3.28986 0.07591,-0.63911 4.63e-4,-1.32528 -0.370674,-1.86789 -0.232374,-0.36515 -0.576226,-0.6337 -0.89694,-0.9158 -0.140616,-0.14502 -0.322925,-0.29966 -0.335409,-0.5148 0.02171,-0.17552 0.184671,-0.32654 0.367263,-0.29322 0.400165,0.0563 0.728181,0.32554 1.019241,0.58767 0.366846,0.35964 0.707885,0.74476 1.064025,1.11496 l 0.449147,-0.003 c 0.872179,-0.96608 1.782894,-1.90058 2.574741,-2.93579 1.634958,-2.11883 2.976818,-4.46025 4.017061,-6.92483 0.595884,-1.43727 1.106556,-2.91811 1.394391,-4.45018 0.311269,-1.61388 0.52747,-3.2461 0.660947,-4.88412 0.04569,-0.70126 0.103824,-1.40806 0.02982,-2.10925 -0.04708,-0.47133 -0.330922,-0.89554 -0.721464,-1.15547 -0.596353,-0.40483 -1.292333,-0.62381 -1.970188,-0.84985 -1.050573,-0.32715 -2.11084,-0.62441 -3.179063,-0.88832 -0.924045,-0.22879 -1.873052,-0.34144 -2.823537,-0.37429 -1.39446,-0.0521 -2.790438,-0.0371 -4.185547,-0.0273 -1.41079,0.0231 -2.82488,0.0532 -4.227609,0.21689 -0.481418,0.0513 -0.951376,0.16833 -1.416905,0.29747 -0.271645,0.0714 -0.543289,0.14288 -0.814934,0.21432 -0.04777,0.16946 -0.09556,0.33893 -0.143333,0.50839 -5.965273,-2.18485 12.459958,6.5915 -7.273524,-3.82269 -2.673707,-1.38841 -5.591554,-2.33064 -8.59165,-2.65327 -24.775794,-2.697466 -2.227837,7.04768 -7.178705,-1.25502 -0.247886,-0.42946 -0.618671,-0.770215 -0.971742,-1.112088 -0.898305,-0.826794 -1.870134,-1.578269 -2.916503,-2.208822 -0.847158,-0.493656 -1.763183,-0.853515 -2.674645,-1.208456 -0.899864,-0.346662 -1.82183,-0.636939 -2.764086,-0.844152 -1.414328,-0.317144 -2.846172,-0.56257 -4.288427,-0.709694 -0.380408,-0.03481 -0.762281,-0.06479 -1.144577,-0.05707 z"
       style="fill:#d7d7f4;stroke-width:1.97437;stroke-linecap:round;stroke-linejoin:bevel;stroke-miterlimit:4;stroke-dasharray:none"
       id="path7414-3-2" />
    <g
       transform="matrix(0.57905162,0,0,0.57905162,47.995759,73.30817)"
       inkscape:export-ydpi="121.024"
       inkscape:export-xdpi="121.024"
       id="g7460">
      <path
         style="fill:none;fill-rule:evenodd;stroke:#000000;stroke-width:2.065;stroke-linecap:round;stroke-linejoin:miter;stroke-miterlimit:4;stroke-dasharray:none;stroke-opacity:1"
         d="m 74.010662,142.15827 c 0,0 -21.877771,-6.43813 -34.255728,-32.73603 0,0 -2.631116,-0.007 -6.800804,0.73363 0,0 3.553598,-3.21096 4.935149,-9.64208 0,0 -4.035049,2.24679 -6.753806,2.41919 0,0 4.937586,-12.376888 10.165551,-15.785139 0,0 3.64149,-15.760748 18.505339,-28.394015"
         id="path7386" />
      <path
         style="fill:none;fill-rule:evenodd;stroke:#000000;stroke-width:2.065;stroke-linecap:round;stroke-linejoin:miter;stroke-miterlimit:4;stroke-dasharray:none;stroke-opacity:1"
         d="m 66.181475,54.899924 c 0,0 1.663424,-4.207216 -0.13225,-11.349066 0,0 6.636062,5.308165 6.594412,9.164994 0,0 30.780513,-19.047776 59.882703,17.042053 0,0 2.8738,-2.962282 10.4744,-2.301534 0,0 -5.40296,4.870427 -6.58885,7.25561 0,0 6.23767,4.953036 5.44907,7.374569"
         id="path7390" />
      <path
         id="path7414"
         style="fill:#afdde9;stroke-width:3.40966;stroke-linecap:round;stroke-linejoin:bevel;stroke-miterlimit:4;stroke-dasharray:none"
         d="m 59.279841,35.720647 c -0.43856,0.02103 -0.991386,0.03198 -1.243073,0.459306 -0.320858,0.636061 -0.466008,1.342864 -0.657569,2.024941 -0.77261,3.069072 -1.398535,6.173653 -1.954456,9.288674 -0.343604,1.91823 -0.620366,3.849503 -0.764077,5.793709 -0.166063,2.011613 -0.263152,4.029815 -0.237376,6.048673 v 2.073051 l 0.872815,0.40256 c 1.053293,-0.886227 2.079427,-1.805397 3.152812,-2.667312 0.602081,-0.449074 1.21997,-0.92561 1.953358,-1.132877 0.107106,-0.01937 0.311034,-0.08157 0.313137,0.09447 0.07966,0.221644 -0.13874,0.384919 -0.240027,0.559337 -0.248492,0.338146 -0.48809,0.626825 -0.762188,0.953358 -1.263092,1.502677 -2.661441,2.882114 -4.008149,4.307983 -4.865283,5.237162 -8.891357,11.298091 -11.551047,17.946539 -0.744154,1.8073 -1.226312,3.736594 -2.256425,5.415195 -0.292346,0.492379 -0.675634,0.923708 -1.120735,1.2827 -0.984779,0.945732 -1.828898,2.027671 -2.628278,3.131394 -1.185085,1.70516 -2.206519,3.517643 -3.195479,5.341572 -0.557784,1.062596 -1.135594,2.121564 -1.561714,3.24559 -0.117795,0.29772 -0.180861,0.71575 0.125061,0.92424 0.25164,0.24237 0.630891,0.10191 0.914112,-0.007 1.580996,-0.59284 3.029786,-1.487409 4.619008,-2.060314 -0.166807,1.240154 -0.566745,2.434064 -0.953696,3.619424 -0.578289,1.70587 -1.259893,3.37759 -2.049738,4.99608 -0.113609,0.3506 0.150839,0.70575 0.487403,0.79693 0.774901,0.23014 1.59631,0.21136 2.397278,0.22058 h 1.646825 c 1.30175,2.41887 2.532031,4.87967 3.984236,7.21398 4.818912,7.84074 11.337496,14.65289 19.052992,19.68396 2.255475,1.4783 4.620387,2.78397 7.048598,3.95537 0.981549,0.48722 1.957393,0.98607 2.924561,1.50131 0.306329,0.16925 0.671939,0.36341 0.994995,0.55329 0.103457,0.0845 0.327567,0.1368 0.352211,0.25027 -0.159893,0.27141 -0.379061,0.53455 -0.667145,0.67128 -0.406151,0.0489 -0.795694,-0.14367 -1.175464,-0.26267 -2.058773,-0.76537 -4.051345,-1.70453 -6.013056,-2.68235 -0.588531,-0.26715 -1.168873,-0.57576 -1.798875,-0.73244 -0.291113,-0.0659 -0.558652,0.12136 -0.706679,0.35963 -1.390012,1.76846 -2.674418,3.61687 -3.964601,5.45861 -1.849472,2.67262 -3.688379,5.35793 -5.312502,8.17563 -2.524747,4.3518 -4.771044,8.86887 -6.660235,13.53285 -1.026536,2.58332 -1.977186,5.21205 -2.55207,7.9372 -0.0691,0.40156 -0.22593,0.89123 0.07656,1.23551 0.248338,0.28631 0.689891,0.24023 0.971116,0.0282 0.740497,-0.53801 1.367319,-1.21317 2.029444,-1.84136 0.920557,-0.90103 1.841262,-1.81009 2.875166,-2.58266 -0.226404,1.7942 -0.70553,3.52146 -1.044421,5.29407 -1.198679,6.03834 -1.915901,12.16935 -2.220193,18.31674 -0.105193,2.41754 -0.18138,4.83664 -0.210775,7.25635 0.0054,1.2638 -0.02644,2.54393 0.23631,3.78705 0.134514,0.61042 0.462756,1.24331 1.073835,1.48674 0.700487,0.29193 1.473722,0.12811 2.205551,0.22634 -0.05653,0.43928 -0.181972,0.86975 -0.176395,1.31682 -0.04972,1.88715 0.0681,3.77412 0.18914,5.65661 0.423587,5.9484 1.341615,11.86584 2.809264,17.6473 0.959575,3.7239 2.132168,7.40932 3.770976,10.89457 0.92899,1.93721 1.991387,3.84395 3.449548,5.43738 0.981022,1.00763 2.047483,1.9324 3.165615,2.78482 1.431586,1.06865 2.987193,2.04804 4.737526,2.48655 1.086345,0.2656 2.319872,0.23705 3.269805,-0.41548 0.424678,-0.30505 0.813229,-0.68076 1.088586,-1.12758 0.33809,-0.60743 0.12278,-1.31971 -0.05499,-1.9406 -0.379548,-1.21681 -0.796947,-2.42291 -1.102096,-3.66174 -0.30498,-1.18049 -0.568187,-2.38109 -0.796742,-3.56161 -0.620088,-3.19419 -1.057466,-6.47507 -1.409862,-9.713 -0.647686,-6.00962 -0.996749,-12.02536 -1.253109,-18.06679 -0.08539,-2.0862 -0.19005,-4.15446 -0.175432,-6.24348 0.0045,-0.20285 0.01266,-0.46049 0.01868,-0.6216 0.04043,-0.4571 0.02662,-0.95243 0.263742,-1.36051 0.126875,-0.12973 0.260347,-0.29546 0.439248,-0.34417 0.185324,0.0526 0.2829,0.21736 0.315891,0.39642 0.160692,0.5784 0.213071,1.22801 0.275288,1.79156 0.284401,3.37226 0.325895,6.75843 0.467318,10.13829 0.195789,4.77768 0.454755,9.55699 0.99124,14.31008 0.157718,1.39123 0.372092,2.77497 0.590929,4.15764 0.297312,0.0992 0.594624,0.19844 0.891936,0.29765 1.587302,-1.53294 3.149296,-3.09238 4.756592,-4.60442 1.516809,-1.4157 3.16929,-2.6933 4.97677,-3.71755 1.588754,-0.90239 3.239522,-1.68881 4.860203,-2.53119 0.328099,-0.16741 0.656196,-0.33481 0.984295,-0.50221 -0.02618,-0.32505 -0.05237,-0.65009 -0.07855,-0.97514 -2.333426,-0.76112 -4.678119,-1.49258 -7.059472,-2.09042 -0.157961,-0.042 -0.416697,-0.0596 -0.162338,-0.20093 0.941248,-0.84466 1.883873,-1.69384 2.931737,-2.4067 2.074595,-1.44405 4.379902,-2.58807 6.708016,-3.51127 2.07138,-0.81672 4.206346,-1.47032 6.376871,-1.96577 0.320556,-0.0706 0.672542,-0.15034 0.999064,-0.21443 1.789594,-0.36492 3.641074,-0.62365 5.479644,-0.73938 0.48598,-0.0312 1.03476,-0.0543 1.52221,-0.0621 1.26932,-0.0137 2.5388,-0.005 3.80819,-0.01 0.14969,-0.26957 0.29936,-0.53915 0.44907,-0.80873 -0.65925,-1.0841 -1.36498,-2.1408 -1.98523,-3.24805 -0.50798,-0.9018 -0.78231,-1.91711 -0.87504,-2.94433 -0.0686,-0.64887 -0.10292,-1.25693 -0.12886,-1.90601 -0.0224,-0.7208 -0.032,-1.44489 0.0436,-2.16301 1.17425,0.76536 2.18328,1.74816 3.29947,2.59112 2.34816,1.84179 4.90575,3.45676 7.71218,4.50211 2.93478,1.11582 6.05227,1.62889 9.15635,2.00426 3.59121,0.46427 7.18656,0.93246 10.7372,1.65274 2.03394,0.43489 4.08844,0.92743 5.94364,1.89657 0.97625,0.50335 1.83993,1.19462 2.62369,1.95888 1.31423,1.23256 2.80656,2.2941 4.47499,2.99078 1.19807,0.51575 2.45544,0.87386 3.71364,1.20911 0.33922,0.0972 0.73904,0.21071 1.09236,0.34386 0.28627,0.12473 0.63606,0.21702 0.81398,0.49278 0.0231,0.11822 0.0575,0.30459 -0.0236,0.39077 -0.53919,0.1226 -1.10094,0.0597 -1.64926,0.0478 -2.40074,-0.14432 -4.69725,-1.06588 -6.72306,-2.32732 -1.09322,-0.67578 -2.09167,-1.48964 -3.04563,-2.34763 -1.10644,-0.97071 -2.35863,-1.79275 -3.7498,-2.29138 -1.91917,-0.69996 -3.94613,-1.02803 -5.95457,-1.35727 -3.72715,-0.58028 -7.48796,-0.99748 -11.20714,-1.57616 -1.05829,-0.16134 -2.14539,-0.33317 -3.21121,-0.53094 -0.21282,-0.0414 -0.5008,-0.098 -0.73949,-0.16175 -0.39846,-0.10422 -0.84082,-0.25021 -1.19528,-0.37724 -2.33951,-0.86918 -4.56553,-2.02539 -6.68647,-3.33603 -0.88938,-0.54218 -1.71262,-1.18687 -2.6127,-1.71121 -0.29024,-0.17813 -0.7125,-0.23982 -0.96221,0.0386 -0.3011,0.31997 -0.13273,0.78235 -0.0215,1.14561 0.43675,1.43153 1.38347,2.64308 2.41452,3.70089 1.46541,1.46418 3.20505,2.68202 5.14465,3.42747 0.39,0.15989 0.81913,0.24834 1.17088,0.48634 -0.0107,0.4803 -0.20024,0.93756 -0.30654,1.40275 -0.31909,-0.0487 -0.67377,-0.15731 -1.00654,-0.22904 -1.52502,-0.36493 -3.04707,-0.76065 -4.60618,-0.95401 -3.16727,-0.4225 -6.38039,-0.47469 -9.56457,-0.22792 -2.27408,0.18371 -4.547901,0.54076 -6.713267,1.27842 -2.369421,0.7954 -4.686522,1.75068 -6.925699,2.86122 -0.787167,0.41221 -1.604415,0.80181 -2.279422,1.38917 -0.275371,0.23303 -0.428271,0.66694 -0.19372,0.98001 0.257013,0.31042 0.661328,0.44738 1.009144,0.63177 0.905182,0.43623 1.891086,0.70351 2.735779,1.26246 0.678243,0.44277 1.363842,0.98468 1.673799,1.75804 0.109675,0.28316 0.122833,0.65939 -0.151662,0.85512 -0.614021,0.48488 -1.365361,0.74749 -2.077432,1.05223 -3.650149,1.39825 -7.031315,3.47095 -9.992058,6.01755 -1.88672,1.62602 -3.595616,3.4718 -4.970229,5.55347 -0.344208,0.51341 -0.716209,1.01541 -1.043184,1.5359 -0.03612,0.21252 -0.109431,0.42635 -0.01398,0.63426 0.576649,2.22262 1.08544,4.46407 1.747528,6.66361 0.674341,2.20919 1.534184,4.42738 3.050212,6.20591 1.275299,1.51928 2.922225,2.6584 4.552992,3.76079 3.277738,2.17686 6.926482,3.81644 10.768663,4.68958 3.94534,0.91378 8.038036,1.04819 12.063196,0.71351 3.39888,-0.29018 6.75316,-1.07829 9.92452,-2.33507 1.27697,-0.494 2.51608,-1.07784 3.75423,-1.66055 0.54483,-0.24003 1.1216,-0.53351 1.7172,-0.68885 0.20858,-0.0739 0.42639,8.4e-4 0.56714,0.16582 0.20848,0.21141 0.4539,0.4025 0.60799,0.65738 -0.1561,0.41765 -0.50259,0.72933 -0.78125,1.06772 -1.26128,1.38402 -2.62001,2.67792 -3.84699,4.09323 -0.28709,0.36226 -0.67951,0.77695 -0.57248,1.28 0.0973,0.39981 0.53209,0.56867 0.90692,0.56327 0.88257,0.027 1.74307,-0.22146 2.59342,-0.42632 2.45225,-0.64665 4.85803,-1.46386 7.22032,-2.38444 3.03532,-1.15923 5.87711,-2.7628 8.61253,-4.50352 3.49625,-2.24799 6.84233,-4.73819 9.94417,-7.5072 1.40424,-1.2393 2.69498,-2.59759 4.00174,-3.93705 0.11917,1.45794 0.23782,2.91592 0.35657,4.37389 0.28302,0.12575 0.56603,0.2515 0.84905,0.37724 0.78987,-0.60232 1.58493,-1.217 2.36884,-1.80867 0.34644,-0.25881 0.74624,-0.54127 1.12359,-0.79473 2.74688,-1.83632 5.72606,-3.31395 8.81276,-4.48579 1.00787,-0.37492 2.03944,-0.70843 3.0481,-1.11678 0.81424,-0.33598 1.6473,-0.64901 2.39756,-1.11646 0.49069,-0.37019 0.74196,-0.95803 1.01414,-1.49083 0.40268,-0.82246 0.67212,-1.69801 0.97161,-2.55885 0.39354,-1.03978 0.94656,-2.08991 1.89757,-2.72065 0.36403,-0.26917 0.72806,-0.53833 1.09209,-0.8075 l 0.0873,-0.76946 c -1.06102,-1.25476 -2.18491,-2.46554 -3.08088,-3.84901 -1.93025,-2.9144 -3.23226,-6.1917 -4.29026,-9.50865 -0.81201,-2.56686 -1.47528,-5.20436 -2.05496,-7.85002 -0.48252,-2.20459 -0.89951,-4.45247 -1.3915,-6.6685 -0.42461,-1.91036 -0.83576,-3.82615 -1.37339,-5.70861 -0.46017,-1.44762 -1.14627,-2.81158 -1.85837,-4.1492 -1.72307,-3.15323 -3.75633,-6.13138 -5.97722,-8.95363 -1.00368,-1.27795 -2.07287,-2.50291 -3.17355,-3.69742 -0.45289,-0.54554 -0.95119,-1.10359 -1.14205,-1.80247 -0.0942,-0.29178 0.0982,-0.57571 0.35563,-0.7022 0.34633,-0.21227 0.84183,-0.26626 1.01284,-0.68933 0.20003,-0.43423 -0.0977,-0.88575 -0.40185,-1.18296 -0.87262,-0.8532 -1.88828,-1.54033 -2.84734,-2.29019 -3.6039,-2.79718 -6.95982,-5.8979 -10.22576,-9.07862 -4.96457,-4.87337 -9.69182,-9.99032 -14.1343,-15.34432 -1.6471,-1.97614 -3.31856,-4.07696 -4.12478,-6.57142 -0.51392,-1.53746 -0.62911,-3.17279 -0.60051,-4.78375 v -1.70657 c -0.23255,-0.16725 -0.46509,-0.33451 -0.69763,-0.50177 -1.39365,0.46563 -2.82128,0.95062 -4.19458,1.40146 -0.62196,0.18299 -1.24211,0.42581 -1.89558,0.45563 -0.32707,0.004 -0.54311,-0.29527 -0.72803,-0.52436 -0.11894,-0.13358 0.11145,-0.23254 0.19426,-0.31093 0.75552,-0.48689 1.62044,-0.76493 2.45493,-1.08343 2.5644,-0.86053 4.96519,-2.13436 7.29355,-3.49663 3.085,-1.82725 6.04449,-3.86836 8.8434,-6.10941 0.90403,-0.73677 1.81501,-1.56163 2.236,-2.68067 0.43491,-1.16862 0.65566,-2.40526 0.82785,-3.6364 0.0906,-0.56156 0.0717,-1.13167 0.13103,-1.69548 0.0362,-0.0871 0.008,-0.43207 0.11787,-0.30621 0.80751,0.92581 1.48522,1.96241 2.06289,3.0451 0.17516,0.34609 0.35624,0.70639 0.36075,1.10238 0.0486,0.40709 0.47685,0.73794 0.88109,0.59738 0.35459,-0.0997 0.54324,-0.4568 0.57678,-0.80213 0.21292,-1.33993 0.27769,-2.69825 0.36936,-4.05052 0.18687,-2.8841 0.18477,-5.78005 0.47499,-8.6572 0.14828,-1.59182 0.53709,-3.15035 1.04688,-4.66249 0.61183,-1.86359 1.31669,-3.7217 1.54815,-5.68147 0.13109,-1.10371 7.7e-4,-2.28871 -0.64014,-3.22579 -0.4013,-0.630589 -0.99512,-1.094379 -1.54898,-1.581549 -0.24284,-0.250446 -0.55768,-0.517509 -0.57924,-0.889034 0.0375,-0.303125 0.31892,-0.56393 0.63425,-0.506391 0.69107,0.09723 1.25754,0.562197 1.76019,1.014888 0.63353,0.621086 1.22249,1.286187 1.83753,1.925506 l 0.77566,-0.006 c 1.50622,-1.668382 3.07899,-3.282235 4.44648,-5.070008 2.82351,-3.659132 5.14086,-7.702664 6.93732,-11.958929 1.02907,-2.482098 1.91098,-5.03946 2.40806,-7.685283 0.53755,-2.787118 0.91092,-5.60588 1.14143,-8.434697 0.0789,-1.211045 0.1793,-2.431658 0.0515,-3.642593 -0.0813,-0.813972 -0.57149,-1.546561 -1.24594,-1.995447 -1.02988,-0.699128 -2.23181,-1.077291 -3.40244,-1.467652 -1.81431,-0.564989 -3.64535,-1.078341 -5.49013,-1.534099 -1.59579,-0.395118 -3.23469,-0.589661 -4.87614,-0.64638 -2.40818,-0.09 -4.81898,-0.064 -7.22829,-0.04715 -2.43638,0.03992 -4.87846,0.09194 -7.30092,0.374552 -0.83139,0.08863 -1.64299,0.290711 -2.44694,0.513728 -0.46912,0.123373 -0.93824,0.246743 -1.40736,0.370113 -0.0825,0.292661 -0.16502,0.585321 -0.24753,0.877982 2.69086,2.802679 5.382,5.60509 8.07341,8.407239 0.19798,0.03366 0.3991,0.11077 0.59522,0.118718 0.81388,-0.298357 1.61216,-0.641995 2.43695,-0.908785 1.36982,-0.354293 2.78556,-0.484907 4.19196,-0.602142 1.03218,-0.07625 2.05417,-0.122332 3.09947,-0.114837 0.55392,0.0073 1.11003,0.02009 1.65913,0.09887 -1.34845,1.684358 -2.92929,3.161426 -4.45672,4.679283 -0.74598,0.735018 -1.49197,1.470033 -2.23796,2.20505 0.005,0.247097 -0.0412,0.512498 -0.006,0.748388 0.93794,1.067342 1.90768,2.107289 2.82195,3.195074 0.82349,1.033414 1.59184,2.154356 1.97307,3.432831 0.0978,0.419523 0.22172,0.917217 -0.0326,1.304832 -0.19051,0.20978 -0.52469,0.259797 -0.78807,0.190685 -0.31687,-0.234325 -0.36471,-0.66862 -0.45579,-1.025779 -0.26627,-0.920604 -0.86797,-1.69473 -1.4493,-2.438868 -0.91266,-1.149366 -2.0059,-2.133558 -3.00424,-3.204512 -0.32191,-0.377925 -0.71096,-0.763288 -0.79316,-1.273508 -0.0214,-0.524259 0.32918,-0.964523 0.60623,-1.37836 0.87762,-1.207204 1.92079,-2.285352 2.78274,-3.504078 0.23937,-0.341368 2.07623,-1.340993 1.82776,-1.744033 -0.26311,-0.411409 -2.40008,0.145942 -2.82664,0.185912 -1.3163,0.160264 -2.57552,0.63146 -3.7683,1.195401 -0.72611,0.340214 -1.38209,0.803288 -2.03451,1.26452 -1.76305,-1.868365 -3.50444,-3.757361 -5.28362,-5.610391 -4.54224,-4.671367 -9.69108,-8.817573 -15.49209,-11.82315 -4.61739,-2.397731 -9.6564,-4.024937 -14.83746,-4.582094 -5.137068,-0.564504 -10.374066,-0.07522 -15.345008,1.32038 -3.267845,0.954913 -6.39187,2.341308 -9.432065,3.861099 -0.198191,0.176461 -0.208939,-0.01217 -0.206465,-0.192929 3.02e-4,-0.591926 -0.06581,-1.185397 -0.252806,-1.749544 C 71.543833,50.467348 70.831958,49.34245 70.105568,48.251806 69.8007,47.78193 69.495828,47.312051 69.190957,46.842175 l -0.970481,0.234093 c -0.200517,1.819296 -0.335847,3.646926 -0.610061,5.457272 -0.145589,0.825629 -0.273441,1.678482 -0.66476,2.430182 -0.105611,0.209462 -0.317582,0.451842 -0.577781,0.334785 -0.109662,-0.06717 -0.09342,-0.246483 -0.128638,-0.358198 -0.100825,-0.869982 -0.05066,-1.762205 -0.03256,-2.618587 0.107368,-2.512068 0.09123,-5.047829 -0.370903,-7.527544 -0.201512,-1.039982 -0.472004,-2.06606 -0.639398,-3.112928 1.407165,1.02594 2.749738,2.146019 3.955831,3.404443 0.197829,0.208042 0.446738,0.463572 0.657349,0.696588 1.002723,1.103481 1.983687,2.241666 2.767057,3.51469 0.174694,0.298342 0.352944,0.612336 0.364358,0.965586 0.09086,0.500571 0.659646,0.791742 1.130832,0.642419 3.178656,-1.066226 6.371791,-2.090348 9.564989,-3.112629 0.333904,-0.12496 0.699849,-0.178396 1.009041,-0.360027 0.35663,-0.252801 0.337492,-0.768628 0.123526,-1.108427 -0.42809,-0.741653 -1.068422,-1.330132 -1.678164,-1.920533 -1.551348,-1.427843 -3.229658,-2.725611 -5.036691,-3.814551 -1.463011,-0.852525 -3.044949,-1.473989 -4.619008,-2.086957 -1.554041,-0.598673 -3.146245,-1.099971 -4.77348,-1.45782 -2.442499,-0.547695 -4.915231,-0.971536 -7.405958,-1.225613 -0.656949,-0.06011 -1.316429,-0.11189 -1.976633,-0.09856 z m 2.706812,44.871679 c 0.408538,0.106286 0.637643,0.510734 0.861446,0.836642 0.406617,0.681313 0.69663,1.426575 1.137915,2.088761 0.401452,0.600811 0.801134,1.24623 1.420585,1.645894 0.917308,0.535149 2.020144,0.606306 3.058334,0.563438 1.441771,-0.07199 2.859252,-0.456541 4.160346,-1.0771 0.472114,-0.182775 0.949695,-0.418497 1.465543,-0.422199 0.169637,0.01239 0.142687,0.250312 0.169613,0.372581 0.04739,0.253625 -0.01951,0.521319 -0.224348,0.689616 -0.588626,0.528603 -1.345102,0.814273 -2.066234,1.112546 -1.745443,0.679225 -3.685347,1.04517 -5.539944,0.634878 -1.439375,-0.306512 -2.746155,-1.175678 -3.577383,-2.391084 -0.629547,-0.933374 -1.12635,-1.997901 -1.22926,-3.130598 -0.007,-0.301202 -0.03664,-0.671401 0.193887,-0.90012 0.05056,-0.03024 0.113035,-0.02751 0.1695,-0.02325 z m 30.631204,6.586162 c 0.306533,0.01116 0.671364,0.07578 0.807701,0.391708 0.359807,0.731052 0.363829,1.573485 0.671685,2.324145 0.45453,1.277792 1.405675,2.38439 2.647457,2.949432 1.538568,0.71756 3.31071,0.685676 4.94332,0.356264 0.93913,-0.17358 1.83083,-0.522351 2.74755,-0.778767 0.51161,-0.11916 1.05647,-0.268758 1.57837,-0.128365 0.29538,0.09922 0.30496,0.481523 0.26303,0.737939 -0.14582,0.305448 -0.50958,0.415234 -0.79592,0.550894 -1.18992,0.452358 -2.4329,0.755692 -3.68188,0.993772 -0.83368,0.15507 -1.67711,0.261181 -2.524354,0.301731 -0.202901,0.0083 -0.485479,0.01617 -0.719535,0.01085 -0.833916,-0.0025 -1.681324,-0.133146 -2.427242,-0.523838 -2.287797,-1.128596 -3.747522,-3.681042 -3.65715,-6.218277 0.009,-0.323009 -0.0034,-0.652534 0.07617,-0.968007 0.0236,1.74e-4 0.0472,3.46e-4 0.0708,5.18e-4 z M 79.439334,156.81094 c 0.241107,0.1059 0.380278,0.36578 0.510678,0.58313 0.07542,0.32249 -0.156472,0.61775 -0.305853,0.8855 -0.520446,0.78283 -1.150308,1.47717 -1.676779,2.25837 -1.442995,2.04661 -2.715813,4.22049 -3.724312,6.51435 -0.567097,1.29652 -0.970603,2.66609 -1.189514,4.06414 -0.04938,0.35036 -0.08544,0.79577 0.252331,1.01906 0.357968,0.22674 0.766371,-0.0119 1.092753,-0.18382 1.676606,-0.92623 3.112304,-2.21848 4.759211,-3.19062 0.313592,-0.15887 0.638249,-0.38405 1.002371,-0.36632 0.199822,0.19153 0.246502,0.49324 0.335955,0.74648 0.08092,0.19413 0.02708,0.41551 -0.144671,0.54106 -0.749396,0.63846 -1.673143,1.02439 -2.457681,1.61529 -1.45416,1.05912 -2.738019,2.42005 -3.489428,4.07041 -0.471977,1.01624 -0.603805,2.18394 -0.347281,3.27641 0.381508,1.6899 1.402289,3.15018 2.526061,4.43472 1.886895,2.1108 4.156763,3.83734 6.492825,5.41908 2.072484,1.40151 4.242533,2.65017 6.430092,3.86142 0.588153,0.35352 1.222491,0.66115 1.713399,1.14987 0.244269,0.23126 0.06018,0.57329 -0.0248,0.8332 -0.05551,0.11796 -0.100272,0.3157 -0.208484,0.36194 -1.25676,-0.5855 -2.452328,-1.29292 -3.657193,-1.97672 -2.295998,-1.34079 -4.584612,-2.70026 -6.782723,-4.1978 -1.303544,-0.91563 -2.552864,-1.91291 -3.696978,-3.02271 -0.07522,-0.0772 -0.224943,-0.22433 -0.328681,-0.3283 -1.56083,-1.59131 -2.933959,-3.45938 -3.543826,-5.63095 -0.172948,-0.61898 -0.27567,-1.25755 -0.303464,-1.8997 -9.26e-4,-0.0768 -0.0084,-0.26064 -0.0063,-0.38044 0.04991,-1.17588 -0.01507,-2.37953 -0.394679,-3.50202 -0.169757,-0.38703 -0.371171,-0.76798 -0.421399,-1.19479 -0.192543,-1.26109 0.06319,-2.53965 0.385892,-3.7575 0.702717,-2.50285 1.870752,-4.85245 3.225257,-7.06256 0.890646,-1.42989 1.862548,-2.81326 2.949337,-4.10131 0.28843,-0.30932 0.568939,-0.6634 0.96797,-0.83112 0.01944,-0.005 0.03967,-0.01 0.05995,-0.008 z"
         sodipodi:nodetypes="cccccccccccccccccccccccccccccccccccccccccccccccccccccccccccccccccccccccccccccccccccccccccccccccccccccccccccccccccccccccccccccccccccccccccccccccccccccccccccccccccccccccccccccccccccccccccccccccccccccccccccccccccccccccccccccccccccccccccccccccccccccccccccccccccccccccccccccccccccccccccccccscccccccccccccsssccccccccccccccsscccccccccccccccccccccccccccccccccccc" />
      <path
         style="fill:#87cdde;fill-opacity:1;fill-rule:evenodd;stroke:none;stroke-width:0.264583px;stroke-linecap:butt;stroke-linejoin:miter;stroke-opacity:1"
         d="m 71.838161,141.61423 c 0,0 -20.459994,54.69513 -11.425061,94.80748 l 3.799165,15.67003 -4.872699,-4.78279 c 0,0 -7.440658,-9.37126 -8.02495,-38.66517 l -3.118835,0.29269 -0.694356,-10.98528 2.792531,-23.40206 -2.58785,2.43231 -3.288397,3.87124 1.768561,-11.27968 6.738223,-14.22355 10.729577,-17.14458 z"
         id="path7436"
         sodipodi:nodetypes="cccccccccccccc" />
      <path
         style="fill:none;fill-rule:evenodd;stroke:#000000;stroke-width:2.065;stroke-linecap:round;stroke-linejoin:miter;stroke-miterlimit:4;stroke-dasharray:none;stroke-opacity:1"
         d="m 121.82758,58.818734 c 0,0 19.15892,-6.180611 36.59988,2.448523 0,0 3.44974,22.918547 -16.59482,40.960093"
         id="path7392" />
      <path
         style="fill:none;fill-rule:evenodd;stroke:#000000;stroke-width:2.065;stroke-linecap:round;stroke-linejoin:miter;stroke-miterlimit:4;stroke-dasharray:none;stroke-opacity:1"
         d="m 138.56421,97.944568 c 0,0 5.97673,1.071714 1.00702,12.219782 0,0 -2.03083,5.97719 -0.98823,8.65147 0,0 0.81979,6.13511 -1.96211,13.30596 0,0 -0.44225,-4.59081 -2.66179,-7.80732 0,0 -0.89832,7.92916 -4.85541,11.22209 0,0 0.68067,-1.92758 0.7509,-3.47097 0,0 -10.64375,8.52561 -17.92704,9.69466"
         id="path7394" />
      <path
         style="fill:#87cdde;fill-opacity:1;fill-rule:evenodd;stroke:none;stroke-width:0.264583px;stroke-linecap:butt;stroke-linejoin:miter;stroke-opacity:1"
         d="m 85.05532,260.28871 c 0,0 -4.838213,-26.00946 51.96897,-44.61207 l -17.25005,-3.4765 c 0,0 -2.55177,-0.0685 -11.28383,-5.83438 0,0 0.12921,6.74615 8.83812,10.05093 0,0 -2.54089,-0.99523 -14.87198,-0.91311 -12.331091,0.0821 -17.839423,7.30368 -17.839423,7.30368 0,0 5.537764,1.37788 6.89763,3.29792 1.359867,1.92004 -1.623366,1.37975 -2.240258,1.79148 -0.616893,0.41173 -10.885677,5.56371 -12.262681,7.77382 -1.377004,2.21011 -4.166826,5.76934 -4.166826,5.76934 l 3.295654,11.37594 c 0,0 4.315485,7.103 8.914674,7.47295 z"
         id="path7434" />
      <path
         style="fill:none;fill-rule:evenodd;stroke:#000000;stroke-width:2.065;stroke-linecap:round;stroke-linejoin:miter;stroke-miterlimit:4;stroke-dasharray:none;stroke-opacity:1"
         d="m 119.85048,138.94629 c 0,0 -1.63698,7.47617 1.75317,11.65112 0,0 19.0052,24.2506 34.7496,32.80581 0,0 -2.85941,0.62237 -6.41101,-0.42923 0,0 11.8152,11.6282 13.72923,22.5407 1.91404,10.91251 3.92821,23.99514 13.04584,31.52984 0,0 -2.91001,-0.70313 -4.42311,1.63115 -1.51309,2.33428 -0.65897,5.44316 -3.78481,6.60439 -3.12584,1.16124 -11.17261,2.43955 -20.34289,11.94809 0,0 1.83973,-2.72983 1.55136,-7.24994 0,0 -16.57312,18.36388 -37.80392,18.67065 0,0 6.44607,-4.13656 9.81661,-8.98389 0,0 -23.412273,14.71693 -44.189819,-3.89723 0,0 -7.216698,-5.81699 -7.496025,-48.11672"
         id="path7396" />
      <path
         style="fill:none;fill-rule:evenodd;stroke:#000000;stroke-width:2.065;stroke-linecap:round;stroke-linejoin:miter;stroke-miterlimit:4;stroke-dasharray:none;stroke-opacity:1"
         d="m 64.495049,138.07898 c 0,0 -22.118229,26.93558 -19.866625,45.20857 0,0 0.70526,-5.5995 6.081137,-10.1479 0,0 -5.291003,23.18931 -2.371276,36.69166 0,0 1.297721,-1.93052 2.635019,-1.59972 0,0 -1.22752,18.97702 8.108809,38.54922 0,0 11.805942,14.46828 16.215936,5.11263"
         id="path7398" />
      <path
         style="fill:none;fill-rule:evenodd;stroke:#000000;stroke-width:2.065;stroke-linecap:round;stroke-linejoin:miter;stroke-miterlimit:4;stroke-dasharray:none;stroke-opacity:1"
         d="m 72.574641,241.32526 c 0,0 4.510699,-9.80482 18.490388,-14.44456 0,0 0.432826,-1.95126 -7.898926,-3.75733 0,0 13.880085,-12.58375 34.718397,-5.99707 0,0 -10.97699,-3.22704 -10.15353,-12.35294 0,0 7.12378,6.20476 13.7364,7.76796 0,0 17.93376,1.65009 23.06668,4.23142 0,0 2.84362,5.28825 11.78743,6.41842"
         id="path7400"
         sodipodi:nodetypes="cccccccc" />
      <path
         style="fill:none;fill-rule:evenodd;stroke:#000000;stroke-width:2.065;stroke-linecap:round;stroke-linejoin:miter;stroke-miterlimit:4;stroke-dasharray:none;stroke-opacity:1"
         d="m 61.782744,81.196745 c 0,0 1.691648,9.516781 11.717479,3.768926"
         id="path7402" />
      <path
         style="fill:none;fill-rule:evenodd;stroke:#000000;stroke-width:2.065;stroke-linecap:round;stroke-linejoin:miter;stroke-miterlimit:4;stroke-dasharray:none;stroke-opacity:1"
         d="m 92.702948,87.915469 c 0,0 -0.223092,10.247815 12.723562,4.993786"
         id="path7404" />
      <path
         style="fill:none;fill-rule:evenodd;stroke:#000000;stroke-width:2.065;stroke-linecap:round;stroke-linejoin:miter;stroke-miterlimit:4;stroke-dasharray:none;stroke-opacity:1"
         d="m 72.781133,115.42082 c 0.80317,-0.60215 -3.04474,5.20848 -9.460552,3.73309"
         id="path7406"
         sodipodi:nodetypes="cc" />
      <path
         style="fill:none;fill-rule:evenodd;stroke:#000000;stroke-width:2.065;stroke-linecap:round;stroke-linejoin:miter;stroke-miterlimit:4;stroke-dasharray:none;stroke-opacity:1"
         d="m 78.757142,124.92104 c -8.507565,-3.16885 -3.552571,-11.22666 -5.463783,-9.52775"
         id="path7408"
         sodipodi:nodetypes="cc" />
      <path
         style="fill:none;fill-rule:evenodd;stroke:#000000;stroke-width:2;stroke-linecap:butt;stroke-linejoin:miter;stroke-miterlimit:4;stroke-dasharray:none;stroke-opacity:1"
         d="m 79.641739,156.99837 c 0,0 -11.58457,13.43388 -5.982243,17.85575"
         id="path7410" />
      <path
         style="fill:none;fill-rule:evenodd;stroke:#000000;stroke-width:2;stroke-linecap:butt;stroke-linejoin:miter;stroke-miterlimit:4;stroke-dasharray:none;stroke-opacity:1"
         d="m 80.493321,168.93506 c 0,0 -22.686674,9.16029 10.78294,25.34172"
         id="path7412" />
      <path
         style="fill:none;fill-rule:evenodd;stroke:#000000;stroke-width:2.065;stroke-linecap:round;stroke-linejoin:miter;stroke-miterlimit:4;stroke-dasharray:none;stroke-opacity:1"
         d="m 54.082957,64.487948 c 0,0 -2.671863,-9.101428 3.152283,-29.339553 0,0 20.617382,-0.953531 29.567617,13.03351"
         id="path7388" />
      <path
         style="fill:#5fbcd3;fill-rule:evenodd;stroke:none;stroke-width:0.264583px;stroke-linecap:butt;stroke-linejoin:miter;stroke-opacity:1"
         d="m 66.859127,44.985367 c -0.361078,-0.04927 2.154642,3.843865 0.01839,10.062133 l 5.512082,-1.374778 c -0.720986,-5.725781 -2.743965,-6.68982 -5.53047,-8.687355 z"
         id="path7417"
         sodipodi:nodetypes="cccc" />
      <path
         sodipodi:nodetypes="cccc"
         id="path7417-3"
         d="m 136.34443,74.588289 -4.08328,-4.564858 c 5.32461,-2.191401 7.63407,-3.117038 10.75378,-2.228689 -3.87461,3.023865 -4.77805,3.205561 -6.6705,6.793547 z"
         style="fill:#5fbcd3;fill-rule:evenodd;stroke:none;stroke-width:0.264583px;stroke-linecap:butt;stroke-linejoin:miter;stroke-opacity:1" />
      <path
         style="fill:none;fill-rule:evenodd;stroke:#000000;stroke-width:2;stroke-linecap:round;stroke-linejoin:round;stroke-miterlimit:4;stroke-dasharray:none;stroke-opacity:1"
         d="m 72.874999,103.30046 c 0,0 7.905813,0.4533 9.555747,1.31371 0,0 -4.809385,3.46943 -6.230606,4.0578 0,0 -2.627164,-3.44025 -3.325141,-5.37151 z"
         id="path7438" />
    </g>
    <g
       inkscape:export-ydpi="121.024"
       inkscape:export-xdpi="121.024"
       style="font-style:normal;font-variant:normal;font-weight:normal;font-stretch:normal;font-size:85.395px;line-height:125%;font-family:Raleway;-inkscape-font-specification:Raleway;text-align:justify;letter-spacing:0px;word-spacing:0px;text-anchor:start;fill:#000000;fill-opacity:1;stroke:none;stroke-width:10.6743px;stroke-linecap:butt;stroke-linejoin:miter;stroke-opacity:1"
       id="text7664"
       transform="matrix(0.6189258,0,0,0.70225151,172.0992,38.770644)"
       aria-label="CLOWDER">
      <path
         id="path7666"
         style="font-style:normal;font-variant:normal;font-weight:normal;font-stretch:normal;font-family:'League Gothic';-inkscape-font-specification:'League Gothic';stroke-width:10.6743px"
         d="m -185.74249,318.93725 v 8.62489 c -0.0854,2.56185 -0.59776,4.86752 -1.53711,6.8316 -0.76855,1.7079 -1.96408,3.33041 -3.67198,4.61133 -1.7079,1.36632 -4.01357,2.13488 -7.08779,2.13488 -3.07422,0 -5.46528,-0.76856 -7.17318,-2.13488 -1.7079,-1.28092 -2.81803,-2.90343 -3.58659,-4.61133 -0.93934,-1.96408 -1.45171,-4.26975 -1.53711,-6.8316 v -36.97603 c 0.0854,-2.47646 0.59777,-4.78212 1.53711,-6.74621 0.76856,-1.7079 1.87869,-3.4158 3.58659,-4.69672 1.7079,-1.28093 4.09896,-2.13488 7.17318,-2.13488 3.07422,0 5.37989,0.85395 7.08779,2.13488 1.7079,1.28092 2.90343,2.98882 3.67198,4.69672 0.93935,1.96409 1.45172,4.26975 1.53711,6.74621 v 8.62489 h -8.62489 v -8.62489 c 0,-1.7079 -0.42698,-2.90343 -1.36632,-3.92817 -0.42698,-0.42698 -1.19553,-0.68316 -2.13488,-0.68316 -1.6225,0 -2.39106,1.19553 -2.81803,2.30566 -0.25619,0.68316 -0.34158,1.45172 -0.42698,2.30567 v 36.97603 c 0.0854,1.7933 0.59777,2.98883 1.45172,3.92817 0.42697,0.42698 1.02474,0.68316 1.79329,0.68316 1.96409,0 2.73264,-1.02474 3.15962,-2.30566 0.25618,-0.59777 0.34158,-1.36632 0.34158,-2.30567 v -8.62489 z" />
      <path
         id="path7668"
         style="font-style:normal;font-variant:normal;font-weight:normal;font-stretch:normal;font-family:'League Gothic';-inkscape-font-specification:'League Gothic';stroke-width:10.6743px"
         d="m -180.19192,277.69146 h 9.22266 v 54.22583 h 12.21149 v 8.5395 h -21.43415 z" />
      <path
         id="path7670"
         style="font-style:normal;font-variant:normal;font-weight:normal;font-stretch:normal;font-family:'League Gothic';-inkscape-font-specification:'League Gothic';stroke-width:10.6743px"
         d="m -131.00456,327.56214 c -0.0854,2.56185 -0.59776,4.86752 -1.53711,6.8316 -0.76855,1.7079 -1.96408,3.33041 -3.67198,4.61133 -1.7079,1.36632 -4.01357,2.13488 -7.08779,2.13488 -3.07422,0 -5.46528,-0.76856 -7.17318,-2.13488 -1.7079,-1.28092 -2.81803,-2.90343 -3.58659,-4.61133 -0.93934,-1.96408 -1.45171,-4.26975 -1.53711,-6.8316 v -36.97603 c 0.0854,-2.47646 0.59777,-4.78212 1.53711,-6.74621 0.76856,-1.7079 1.87869,-3.4158 3.58659,-4.69672 1.7079,-1.28093 4.09896,-2.13488 7.17318,-2.13488 3.07422,0 5.37989,0.85395 7.08779,2.13488 1.7079,1.28092 2.90343,2.98882 3.67198,4.69672 0.93935,1.96409 1.45172,4.26975 1.53711,6.74621 z m -9.22266,-36.97603 c 0,-1.7079 -0.34158,-2.90343 -1.19553,-3.92817 -0.42697,-0.42698 -1.11013,-0.68316 -1.87869,-0.68316 -1.6225,0 -2.39106,1.19553 -2.73264,2.30566 -0.25618,0.68316 -0.34158,1.45172 -0.34158,2.30567 v 36.97603 c 0,1.7933 0.42698,2.98883 1.28093,3.92817 0.42697,0.42698 1.02474,0.68316 1.79329,0.68316 1.62251,0 2.39106,-1.02474 2.73264,-2.30566 0.25619,-0.59777 0.34158,-1.36632 0.34158,-2.30567 z" />
      <path
         id="path7672"
         style="font-style:normal;font-variant:normal;font-weight:normal;font-stretch:normal;font-family:'League Gothic';-inkscape-font-specification:'League Gothic';stroke-width:10.6743px"
         d="m -111.53465,340.45679 h -7.17318 l -8.45411,-62.76533 h 8.5395 l 3.67199,32.62089 0.17079,2.04948 h 0.68316 l 0.25618,-2.04948 3.92817,-32.62089 h 6.66081 l 3.928173,32.62089 0.256185,2.04948 h 0.68316 l 0.17079,-2.04948 3.671985,-32.62089 h 8.539499 l -8.454104,62.76533 h -7.173178 l -4.26975,-29.71746 -0.51237,-3.67199 h -0.34158 l -0.51237,3.67199 z" />
      <path
         id="path7674"
         style="font-style:normal;font-variant:normal;font-weight:normal;font-stretch:normal;font-family:'League Gothic';-inkscape-font-specification:'League Gothic';stroke-width:10.6743px"
         d="m -81.561129,340.45679 v -62.76533 h 7.258575 c 8.5395,0 13.150829,1.7079 15.627284,6.49002 2.39106,4.78212 2.73264,12.63846 2.73264,24.93534 0,12.29688 -0.34158,20.06783 -2.73264,24.84995 -2.476455,4.78212 -7.087784,6.49002 -15.627284,6.49002 z m 9.22266,-9.22266 c 3.159615,0 4.95291,-0.34158 5.892255,-3.4158 0.426975,-1.45172 0.768555,-3.67199 0.85395,-6.66081 0.0854,-2.98883 0.0854,-7.00239 0.0854,-12.12609 0,-5.1237 0,-9.13727 -0.0854,-12.12609 -0.0854,-2.90343 -0.426975,-5.1237 -0.85395,-6.66081 -0.939345,-2.98883 -2.73264,-3.33041 -5.892255,-3.33041 z" />
      <path
         id="path7676"
         style="font-style:normal;font-variant:normal;font-weight:normal;font-stretch:normal;font-family:'League Gothic';-inkscape-font-specification:'League Gothic';stroke-width:10.6743px"
         d="m -49.794207,277.69146 h 21.092564 v 9.47885 h -11.869904 v 16.48123 h 8.539499 v 10.07661 h -8.539499 v 17.24979 h 11.869904 v 9.47885 h -21.092564 z" />
      <path
         id="path7678"
         style="font-style:normal;font-variant:normal;font-weight:normal;font-stretch:normal;font-family:'League Gothic';-inkscape-font-specification:'League Gothic';stroke-width:10.6743px"
         d="m -7.096786,340.45679 -4.78212,-26.47245 h -2.476455 v 26.47245 h -9.222659 v -62.76533 h 9.222659 c 11.0159549,0 15.7126797,6.23384 15.7126797,18.10374 0,6.23384 -1.62250494,11.86991 -5.1236998,14.26097 l 5.8922548,30.40062 z m -7.258575,-35.01195 c 1.280925,0 2.988825,-0.17079 4.355145,-1.36632 1.3663201,-1.19553 2.476455,-3.5012 2.476455,-7.94174 0,-4.44054 -1.1101349,-6.8316 -2.476455,-8.02713 -1.36632,-1.19553 -3.07422,-1.28092 -4.355145,-1.28092 z" />
    </g>
  </g>
</svg>
